<svg version="1.1" id="Layer_1" xmlns="http://www.w3.org/2000/svg" xmlns:xlink="http://www.w3.org/1999/xlink" x="0px" y="0px"
	 width="100%" viewBox="0 0 960 960" enable-background="new 0 0 960 960" xml:space="preserve">
<path fill="#000000" opacity="1.000000" stroke="none" 
	d="
M397.468658,961.000000 
	C390.557495,948.338989 397.616333,939.118408 405.501678,930.113098 
	C402.702271,927.757324 400.214844,925.862610 397.985687,923.701477 
	C396.930450,922.678406 396.064331,922.612976 394.896942,923.107971 
	C394.284454,923.367737 393.627350,923.541687 393.049805,923.861633 
	C375.857483,933.384460 357.286591,932.973755 338.535858,931.564636 
	C328.741638,930.828613 318.864990,931.910095 309.095215,930.382080 
	C308.767426,930.330872 308.418945,930.387512 308.099335,930.312317 
	C304.210022,929.397217 299.555786,928.850342 298.992401,923.993958 
	C298.379089,918.707397 303.271881,918.206726 306.896301,916.650940 
	C315.640961,912.897400 324.820984,910.244751 334.135834,909.376526 
	C344.850891,908.377869 355.506897,906.683716 366.403259,906.824219 
	C381.045807,907.013000 394.984833,903.434082 407.449158,895.140869 
	C413.265778,891.270691 419.297089,887.733459 425.570007,884.596252 
	C437.939453,878.410095 451.294128,874.820129 464.084137,869.740295 
	C486.896393,860.679932 509.798248,851.833496 532.795410,843.253357 
	C558.436768,833.686584 583.819580,823.478943 609.249878,813.379395 
	C619.872803,809.160522 630.996460,806.598999 642.246704,804.340088 
	C647.430359,803.299377 652.849243,803.596619 657.843506,801.614197 
	C659.892273,800.801025 662.181946,800.042297 662.313416,797.473450 
	C662.442078,794.957581 659.989136,794.424927 658.274170,793.643677 
	C640.486511,785.541138 624.133911,774.940247 607.650696,764.579773 
	C603.436890,761.931213 602.373596,757.477844 604.604797,752.771179 
	C608.236816,745.109436 611.763672,737.359253 617.791382,731.135681 
	C619.181152,729.700806 620.344849,728.084045 621.008484,726.131836 
	C622.840698,720.742493 625.605347,716.177246 630.060852,712.251343 
	C634.825317,708.053223 634.160400,703.585205 629.553284,698.972046 
	C627.547607,696.963684 628.347473,694.439941 629.201599,692.422913 
	C632.166504,685.420715 634.319458,678.048218 639.702820,672.182373 
	C644.195496,667.287048 643.625977,660.899963 642.475647,655.028320 
	C641.194031,648.486511 643.047180,642.319275 644.411377,636.361511 
	C647.948425,620.914429 652.455872,605.679443 656.890137,590.451294 
	C660.397095,578.407898 663.006775,566.096497 667.589844,554.367432 
	C669.461487,549.577515 667.424561,546.699707 662.301941,546.337891 
	C653.224060,545.696716 644.476562,547.700256 635.639099,549.275757 
	C611.764282,553.532227 588.015747,552.395081 565.200989,544.301392 
	C549.210083,538.628418 532.931030,537.288574 516.329041,536.309387 
	C499.660400,535.326294 483.510040,531.171509 467.551605,526.444824 
	C458.895660,523.880981 450.294434,521.858765 441.114441,522.293274 
	C423.907379,523.107849 406.989929,520.157166 390.010376,517.841370 
	C379.810211,516.450256 369.466003,516.079041 359.176849,515.394836 
	C355.194641,515.130127 351.202881,515.298279 347.238739,514.499878 
	C340.270630,513.096436 334.647430,516.416016 329.122467,519.985962 
	C302.783691,537.004456 277.443420,555.337769 254.285004,576.565918 
	C247.241913,583.021912 239.263901,588.232422 230.907730,592.738403 
	C217.484497,599.976868 204.996490,608.397583 194.273895,619.312683 
	C184.762497,628.994812 172.412277,635.105286 162.625870,644.458252 
	C158.882355,648.035950 155.390823,651.691223 152.662643,656.199463 
	C144.512299,669.667664 132.889145,679.844116 120.015343,688.502502 
	C111.471176,694.248901 103.676743,691.991272 98.233498,683.098206 
	C95.975189,679.408569 93.878502,675.611328 91.875565,671.775635 
	C82.657982,654.123596 70.742950,638.285217 58.761600,622.499878 
	C50.952328,612.211182 43.862812,601.442139 41.415993,588.610474 
	C39.942822,580.884766 39.077904,572.746948 42.822613,565.133728 
	C45.993141,558.687988 53.496937,555.857544 60.195988,558.492859 
	C68.839165,561.892883 75.097397,568.298401 81.231598,574.925049 
	C89.420074,583.770813 99.554504,590.285767 108.946846,597.683777 
	C111.047630,599.338501 113.080360,599.220947 114.984001,596.835693 
	C117.014732,594.291199 116.259827,592.088806 113.960716,591.054016 
	C106.075920,587.505310 106.650749,579.483032 104.048660,573.172058 
	C103.119736,570.919067 104.060654,568.713684 106.226784,567.636780 
	C109.117455,566.199768 111.130455,568.231873 112.457100,570.317810 
	C115.216805,574.657043 117.534988,579.300537 119.017670,584.229675 
	C120.300385,588.493958 122.804520,589.179382 126.638794,587.982422 
	C130.630539,586.736389 133.614624,584.402283 135.923813,580.906250 
	C142.751465,570.569397 152.043472,563.390137 163.870255,559.535339 
	C168.272095,558.100586 172.502045,556.229675 177.061401,555.154846 
	C180.063187,554.447266 183.008469,552.822449 184.934952,550.128601 
	C196.019913,534.627869 211.050919,523.151489 225.073135,510.641602 
	C242.098160,495.452789 258.821686,479.953064 275.253448,464.108856 
	C284.482788,455.209564 294.136200,446.842743 301.788055,436.454285 
	C304.209625,433.166718 307.687592,431.782501 311.833710,431.872955 
	C319.813568,432.046997 327.772552,431.658691 335.710083,433.409454 
	C342.302521,434.863464 348.945648,432.535339 355.598419,432.427246 
	C358.259094,432.384003 360.916809,431.996185 363.575195,432.003723 
	C388.070068,432.073242 412.450684,430.059021 436.829163,428.024933 
	C440.907898,427.684601 444.465271,425.793274 447.829376,423.599091 
	C460.147095,415.564972 460.137482,415.550262 474.027313,419.598175 
	C476.550781,414.641846 478.060577,409.162689 478.140259,403.699738 
	C478.249603,396.204102 477.946960,388.790375 479.613464,381.358337 
	C480.899445,375.623352 479.949158,370.860931 474.245422,366.718079 
	C462.276062,358.024170 454.073303,345.603638 448.200043,332.440674 
	C442.225708,319.051178 434.247986,310.290558 419.594696,306.423004 
	C408.683258,303.543060 398.091797,299.598602 386.716125,298.782440 
	C385.576294,298.700684 384.348969,298.595734 383.283691,298.911316 
	C373.692719,301.752319 363.859253,301.392731 354.032623,301.330231 
	C331.705322,301.188202 309.345734,300.691284 287.082031,302.499268 
	C272.004669,303.723633 257.036163,305.988739 241.858994,306.525543 
	C221.385117,307.249603 200.883331,307.440643 180.444473,308.553070 
	C168.605728,309.197418 156.970825,312.164307 146.669662,319.141815 
	C137.246490,325.524597 126.733566,325.799988 116.187325,321.973145 
	C113.643433,321.050049 111.234123,319.922516 108.513649,320.374115 
	C100.052406,321.778564 96.393616,317.214539 97.947777,308.254211 
	C99.433304,299.689545 100.843285,291.137238 105.805809,283.465668 
	C110.156670,276.739685 118.179939,270.213776 127.882896,273.927734 
	C144.459625,280.272766 162.008636,281.325958 179.495911,279.700592 
	C188.493805,278.864288 197.371674,276.172028 206.162048,273.794403 
	C220.821564,269.829315 235.210907,264.944702 250.333252,262.682800 
	C265.643768,260.392700 281.067657,259.946045 296.457642,259.115417 
	C312.388123,258.255676 328.122772,256.960358 343.527710,252.264389 
	C350.420349,250.163269 357.779968,249.525589 364.876953,247.903671 
	C368.385925,247.101761 371.278229,245.199814 374.538666,244.023514 
	C381.303833,241.582733 388.485931,241.277451 395.486389,240.124924 
	C398.740570,239.589172 402.052429,239.240570 405.326447,238.666382 
	C409.561584,237.923676 410.214325,235.321945 409.357483,231.691940 
	C406.288940,218.691696 405.875885,206.172089 414.858307,194.860321 
	C419.508209,189.004593 423.260864,182.434250 427.935883,176.601105 
	C438.995850,162.801392 453.235382,155.592773 471.228119,154.550720 
	C498.255035,152.985443 509.045105,168.737274 517.182983,187.464294 
	C519.687744,193.228149 520.669800,199.601913 524.487122,204.852341 
	C526.947205,208.235977 529.636719,209.609711 533.872681,208.186829 
	C544.715759,204.544556 555.631958,201.115372 566.557312,197.724640 
	C571.272705,196.261215 575.880920,194.195175 581.033997,194.666000 
	C583.889099,194.926880 586.172119,193.251251 588.382507,191.882767 
	C602.265137,183.288010 616.475220,175.187103 632.231995,170.741943 
	C645.335388,167.045319 658.413879,163.294174 671.147095,158.550842 
	C684.875244,153.436874 698.942932,149.693573 711.998901,142.084946 
	C724.144409,135.006943 735.362610,127.171783 746.334778,118.551056 
	C758.123535,109.288742 771.690308,102.667595 784.607178,95.099121 
	C804.132812,83.658340 823.884827,72.632904 842.834839,60.178356 
	C851.737366,54.327309 855.769348,46.275883 858.689209,37.005413 
	C861.315857,28.665911 863.638855,20.227947 865.955688,11.794923 
	C867.008667,7.962142 869.278625,6.411952 873.228699,6.538096 
	C879.218506,6.729381 885.270996,7.044969 891.177246,5.855904 
	C898.733765,4.334609 902.901733,10.299482 908.344727,13.314179 
	C911.740051,15.194708 915.285461,17.179241 916.944214,21.304676 
	C917.868286,23.602865 919.999817,24.459520 922.765442,23.755762 
	C926.780701,22.734028 929.257385,24.278324 929.358215,28.722006 
	C929.369568,29.221010 929.310059,29.766590 929.485840,30.210388 
	C936.421082,47.718620 923.157532,56.013313 913.055786,65.470299 
	C909.915405,68.410255 904.926392,68.235115 900.726074,69.065895 
	C889.637756,71.259026 880.268494,76.772675 871.368347,83.353874 
	C869.496460,84.737984 867.762085,86.480637 865.671570,87.369682 
	C845.408936,95.987000 829.289185,110.686165 812.156311,123.840805 
	C790.349060,140.584427 769.257080,158.218018 748.548523,176.312592 
	C741.368591,182.586182 733.212830,187.563644 724.609863,191.628922 
	C702.038940,202.294647 680.903992,215.801575 657.760193,225.314468 
	C655.271240,226.337509 654.194275,228.020187 654.177734,230.675339 
	C654.148682,235.334747 654.086304,239.966125 654.908142,244.600082 
	C655.952209,250.486862 654.991455,255.911255 649.999023,259.893433 
	C646.159851,262.955658 644.925354,266.834076 644.898560,271.714478 
	C644.761353,296.714478 646.071228,321.679291 647.615784,346.589966 
	C648.992432,368.792847 649.600891,391.137604 653.483704,413.112579 
	C654.993408,421.657013 656.801208,430.038361 655.371765,438.743805 
	C655.050781,440.698273 655.842346,442.179901 657.245972,443.611633 
	C659.735046,446.150665 661.831848,449.351715 661.781555,452.800781 
	C661.716370,457.276276 664.374756,457.981293 667.561829,458.677124 
	C675.954224,460.509521 684.478149,461.710419 692.675903,464.460693 
	C707.787231,469.530396 722.409668,475.488373 733.179993,487.894043 
	C741.049744,496.958710 744.594543,507.416565 742.911560,519.678284 
	C742.037659,526.045105 742.496704,532.598511 742.418091,539.068481 
	C742.395508,540.931213 742.357422,542.853699 741.349426,544.388611 
	C734.382874,554.997192 733.187622,567.771545 728.025757,579.140930 
	C709.092957,620.841431 690.878479,662.868042 672.376587,704.764282 
	C671.243408,707.330200 669.900635,709.557068 667.469849,711.433228 
	C664.757141,713.526917 661.499695,716.594604 666.357483,720.170776 
	C666.836304,720.523315 667.112488,721.264771 667.300781,721.881287 
	C670.317017,731.754211 676.147461,740.795593 676.269043,751.517578 
	C676.354553,759.062988 679.852905,764.314087 686.279846,768.048950 
	C688.679260,769.443359 691.201721,771.215698 692.690674,773.463257 
	C695.728699,778.049255 698.942078,776.514343 701.841736,774.074951 
	C707.150024,769.609192 713.196655,766.557678 719.437866,763.778442 
	C720.481934,763.313538 721.635376,762.988098 722.768799,762.851379 
	C725.561707,762.514221 728.800476,761.690369 730.636658,764.427490 
	C732.531250,767.251648 730.397034,769.873169 728.793640,772.157227 
	C718.390625,786.977112 706.297974,800.239563 691.755676,811.094910 
	C685.158630,816.019287 677.177307,818.330078 669.755737,821.684143 
	C668.272705,822.354370 666.804443,823.057434 664.823120,823.981445 
	C666.913086,825.793823 668.579407,827.362366 670.371521,828.770996 
	C677.117737,834.073364 679.042725,841.149841 677.566711,849.220459 
	C676.894470,852.896240 676.930664,856.376770 677.672302,859.995911 
	C679.823059,870.492737 673.678467,880.819580 663.308289,884.373596 
	C652.945374,887.925171 642.079834,883.858704 637.281250,874.371887 
	C635.389587,870.632019 634.471375,866.346252 634.896423,862.257690 
	C636.230530,849.424438 626.666321,843.482849 619.075684,836.273132 
	C617.092224,834.389282 614.923157,836.108154 612.973877,836.732727 
	C591.372864,843.654175 570.873352,853.377380 549.803284,861.652771 
	C516.018738,874.921814 481.897400,887.288940 447.796326,899.709961 
	C446.387909,900.222961 445.008148,900.818726 443.587463,901.293335 
	C440.182617,902.430786 439.520020,905.566162 438.720917,908.368408 
	C437.925171,911.158691 440.627045,912.237427 442.367523,913.013489 
	C456.773285,919.436646 457.932648,943.650391 440.369843,951.633728 
	C436.388885,953.443298 437.428894,957.691711 435.194214,960.687378 
	C422.645782,961.000000 410.291534,961.000000 397.468658,961.000000 
z"/>
</svg>