<?xml version="1.0" encoding="utf-8"?>
<!-- Generator: Adobe Illustrator 24.1.1, SVG Export Plug-In . SVG Version: 6.00 Build 0)  -->
<svg version="1.1" id="Layer_1" xmlns="http://www.w3.org/2000/svg" xmlns:xlink="http://www.w3.org/1999/xlink" x="0px" y="0px"
	 viewBox="0 0 1000 1000" style="enable-background:new 0 0 1000 1000;" xml:space="preserve">
<style type="text/css">
	.aws0{fill:#FFFFFF;}
	.aws1{fill:#252F3E;}
	.aws2{fill-rule:evenodd;clip-rule:evenodd;fill:#FF9900;}
	.aws3{fill:#FF9900;}
</style>
<g id="Layer_2_1_">
	<rect class="aws0" width="1000" height="1000"/>
</g>
<g id="Layer_1_1_">
	<g>
		<path class="aws1" d="M327.9,478.2c0,9.7,1.1,17.6,2.9,23.4c2.1,5.8,4.7,12.1,8.4,18.9c1.3,2.1,1.8,4.2,1.8,6c0,2.6-1.6,5.3-5,7.8
			l-16.5,11c-2.4,1.6-4.7,2.4-6.9,2.4c-2.6,0-5.3-1.3-7.8-3.6c-3.6-4-6.9-8.1-9.4-12.3c-2.6-4.5-5.3-9.4-8.1-15.4
			c-20.5,24.1-46.2,36.2-77.2,36.2c-22.1,0-39.7-6.3-52.5-18.9c-12.9-12.6-19.4-29.4-19.4-50.4c0-22.3,7.8-40.4,23.9-54
			s37.3-20.5,64.3-20.5c8.9,0,18.1,0.8,27.8,2.1c9.7,1.3,19.7,3.4,30.2,5.8v-19.2c0-19.9-4.2-33.9-12.3-42
			c-8.4-8.1-22.6-12.1-42.8-12.1c-9.2,0-18.7,1.1-28.3,3.4s-19.2,5.3-28.3,8.9c-4.2,1.8-7.4,2.9-9.2,3.4c-1.8,0.5-3.1,0.8-4.2,0.8
			c-3.6,0-5.5-2.6-5.5-8.1V339c0-4.2,0.5-7.4,1.8-9.2c1.3-1.8,3.6-3.6,7.4-5.5c9.2-4.7,20.2-8.7,33-11.8c12.9-3.4,26.5-5,40.9-5
			c31.2,0,54,7.1,68.7,21.2c14.5,14.2,21.8,35.7,21.8,64.5v85L327.9,478.2L327.9,478.2z M221.4,518.1c8.7,0,17.6-1.6,27-4.7
			c9.4-3.1,17.8-8.9,24.9-16.8c4.2-5,7.4-10.5,8.9-16.8c1.6-6.3,2.6-13.9,2.6-22.8v-11c-7.6-1.8-15.8-3.4-24.1-4.5
			c-8.4-1.1-16.5-1.6-24.7-1.6c-17.6,0-30.4,3.4-39.1,10.5c-8.7,7.1-12.9,17-12.9,30.2c0,12.3,3.1,21.5,9.7,27.8
			C200.1,515,209.3,518.1,221.4,518.1z M432,546.5c-4.7,0-7.8-0.8-10-2.6c-2.1-1.6-4-5.3-5.5-10.2l-61.6-202.8
			c-1.6-5.3-2.4-8.7-2.4-10.5c0-4.2,2.1-6.5,6.3-6.5h25.7c5,0,8.4,0.8,10.2,2.6c2.1,1.6,3.6,5.3,5.3,10.2l44.1,173.7L485,326.7
			c1.3-5.3,2.9-8.7,5-10.2s5.8-2.6,10.5-2.6h21c5,0,8.4,0.8,10.5,2.6c2.1,1.6,4,5.3,5,10.2l41.5,175.8l45.4-175.8
			c1.6-5.3,3.4-8.7,5.3-10.2c2.1-1.6,5.5-2.6,10.2-2.6h24.4c4.2,0,6.5,2.1,6.5,6.5c0,1.3-0.2,2.6-0.5,4.2c-0.2,1.6-0.8,3.6-1.8,6.5
			l-63.2,202.8c-1.6,5.3-3.4,8.7-5.5,10.2c-2.1,1.6-5.5,2.6-10,2.6h-22.6c-5,0-8.4-0.8-10.5-2.6c-2.1-1.8-4-5.3-5-10.5l-40.6-169.3
			L470,533.3c-1.3,5.3-2.9,8.7-5,10.5c-2.1,1.8-5.8,2.6-10.5,2.6L432,546.5L432,546.5z M769.2,553.6c-13.6,0-27.3-1.6-40.4-4.7
			c-13.1-3.1-23.4-6.5-30.2-10.5c-4.2-2.4-7.1-5-8.1-7.4c-1.1-2.4-1.6-5-1.6-7.4v-13.4c0-5.5,2.1-8.1,6-8.1c1.6,0,3.1,0.2,4.7,0.8
			c1.6,0.5,4,1.6,6.5,2.6c8.9,4,18.7,7.1,28.8,9.2c10.5,2.1,20.7,3.1,31.2,3.1c16.5,0,29.4-2.9,38.3-8.7
			c8.9-5.8,13.6-14.2,13.6-24.9c0-7.4-2.4-13.4-7.1-18.3c-4.7-5-13.6-9.4-26.5-13.6l-38.1-11.8c-19.2-6-33.3-15-42-26.8
			c-8.7-11.6-13.1-24.4-13.1-38.1c0-11,2.4-20.7,7.1-29.2c4.7-8.4,11-15.8,18.9-21.5c7.8-6,16.8-10.5,27.3-13.6
			c10.5-3.1,21.5-4.5,33-4.5c5.8,0,11.8,0.2,17.6,1.1c6,0.8,11.6,1.8,17,2.9c5.3,1.3,10.2,2.6,15,4.2c4.7,1.6,8.4,3.1,11,4.7
			c3.6,2.1,6.3,4.2,7.8,6.5c1.6,2.1,2.4,5,2.4,8.7v12.2c0,5.5-2.1,8.4-6,8.4c-2.1,0-5.5-1.1-10-3.1c-15-6.9-31.7-10.2-50.4-10.2
			c-15,0-26.8,2.4-34.9,7.4c-8.1,5-12.3,12.6-12.3,23.4c0,7.4,2.6,13.6,7.8,18.7c5.3,5,15,10,28.8,14.5L809,418
			c18.9,6,32.5,14.5,40.6,25.2c8.1,10.7,12.1,23.1,12.1,36.8c0,11.3-2.4,21.5-6.9,30.4c-4.7,8.9-11,16.8-19.2,23.1
			c-8.1,6.5-17.8,11.3-29.2,14.7C794.9,551.8,782.6,553.6,769.2,553.6z"/>
		<g>
			<path class="aws2" d="M818.8,681.1c-86.3,63.8-211.7,97.6-319.6,97.6C348,778.8,211.9,722.9,109,630c-8.1-7.4-0.8-17.3,8.9-11.6
				C229.2,683,366.4,722.1,508.4,722.1c95.7,0,201-19.9,297.8-60.9C820.6,654.6,833,670.6,818.8,681.1z"/>
			<path class="aws3" d="M854.7,640.2c-11-14.2-72.9-6.9-101-3.4c-8.4,1.1-9.7-6.3-2.1-11.8c49.3-34.6,130.4-24.7,139.9-13.1
				c9.4,11.8-2.6,92.9-48.8,131.7c-7.1,6-13.9,2.9-10.7-5C842.4,712.6,865.8,654,854.7,640.2z"/>
		</g>
	</g>
</g>
</svg>
