<?xml version="1.0" encoding="utf-8"?>
<!-- Generator: Adobe Illustrator 24.1.1, SVG Export Plug-In . SVG Version: 6.00 Build 0)  -->
<svg version="1.1" id="Layer_1" xmlns="http://www.w3.org/2000/svg" xmlns:xlink="http://www.w3.org/1999/xlink" x="0px" y="0px"
	 viewBox="0 0 2500 2500" style="enable-background:new 0 0 2500 2500;" xml:space="preserve">
<style type="text/css">
	.st0{fill:#9A4993;}
	.st1{fill:#6A1577;}
	.st2{fill:#813084;}
	.st3{fill:#FFFFFF;}
</style>
<path class="st0" d="M2361.4,734.2c0-41.8-8.9-79.4-27.4-110.9c-17.8-31.5-44.5-57.5-80.1-78.1c-295.8-170.5-592.4-341-888.2-511.6
	c-80.1-45.9-156.8-44.5-236.3,2.1c-117.8,69.2-708.1,407.5-883.4,509.5C173.5,587,138.6,651.4,138.6,734.9v1029.9
	c0,41.1,8.9,77.4,26,108.9c17.8,32.2,45.2,59.6,81.5,80.8c176,102,765.6,439.6,883.4,509.5c79.4,46.6,156.8,48.6,236.3,2.1
	c295.8-171.2,592.4-341,888.2-511.6c37-21.2,63.7-47.9,81.5-80.8c17.1-31.5,26-67.8,26-108.9L2361.4,734.2z"/>
<path class="st1" d="M1252.7,1245.6L173.9,1866.7c17.6,31.9,44.8,59,80.7,80c174.3,101,758.1,435.3,874.7,504.5
	c78.7,46.1,155.3,48.1,233.9,2c292.9-169.5,586.5-337.7,879.4-506.5c36.6-21,63.1-47.5,80.7-80L1252.7,1245.6z"/>
<path class="st1" d="M933.3,1429.4c63.1,109.8,181,183.8,316,183.8c136.3,0,254.9-74.6,317.3-185.8l-313.9-181.7L933.3,1429.4z"/>
<path class="st2" d="M2350.5,739.1c0-41.4-8.8-78.7-27.1-109.8l-1070.7,616.4l1072,621.1c17-31.2,25.8-67.1,25.8-107.8V739.1z"/>
<g>
	<path class="st3" d="M1566.7,1427.3c-62.4,110.5-181,185.8-317.3,185.8c-135.6,0-253.6-73.9-316-183.8
		c-30.5-53.6-48.1-114.6-48.1-180.4c0-201.4,162.7-364.1,364.1-364.1c134.3,0,251.6,73.2,314.6,181.7l318-183.1
		C1755.2,665.2,1519.2,518,1248.6,518c-404.1,0-730.9,327.5-730.9,730.9c0,132.2,35.3,257,97,364.1
		c126.1,219,363.4,366.8,634.7,366.8c271.9,0,509.2-148.5,635.3-368.9L1566.7,1427.3z M1968.7,1076.1h-72.6v350.6h72.6V1076.1z
		 M2129.4,1076.1h-72.6v350.6h72.6V1076.1z"/>
	<path class="st3" d="M2188.4,1135.1h-350.6v72.6h350.6L2188.4,1135.1z M2188.4,1295.1h-350.6v72.6h350.6L2188.4,1295.1z"/>
</g>
</svg>
