<?xml version="1.0" encoding="utf-8"?>
<!-- Generator: Adobe Illustrator 24.1.1, SVG Export Plug-In . SVG Version: 6.00 Build 0)  -->
<svg version="1.1" id="Layer_1" xmlns="http://www.w3.org/2000/svg" xmlns:xlink="http://www.w3.org/1999/xlink" x="0px" y="0px"
	 viewBox="0 0 2048 2048" style="enable-background:new 0 0 2048 2048;" xml:space="preserve">
<style type="text/css">
	.st0{fill-rule:evenodd;clip-rule:evenodd;fill:#1572B6;}
	.st1{fill-rule:evenodd;clip-rule:evenodd;fill:#35A8DB;}
	.st2{fill-rule:evenodd;clip-rule:evenodd;fill:#E9E9E8;}
	.st3{fill-rule:evenodd;clip-rule:evenodd;fill:#FFFFFE;}
	.st4{fill:none;}
</style>
<g id="Layer_x0020_1">
	<g id="_337846024">
		<polygon id="_337847128" class="st0" points="1768.6,1828.2 1929.7,23.7 1931.8,0 1908.1,0 139.9,0 116.2,0 118.3,23.7 
			279.2,1828.5 280.5,1843.5 295,1847.5 1017.1,2048 1028.7,2048 1752.8,1847.2 1767.3,1843.2 		"/>
		<polygon id="_337847104" class="st1" points="1791.9,128 1024,128 1024,1916.5 1647.7,1743.6 		"/>
		<g>
			<polygon id="_337846984" class="st2" points="1023.1,608.5 481.5,834.1 499.5,1057.4 1023.1,833.5 1580.2,595.3 1603.3,366.9 			
				"/>
			<polygon id="_337846144" class="st2" points="1023.1,366.9 1027.2,366.9 1031.7,366.9 1036.3,366.9 1040.9,366.9 1045.4,366.9 
				1050,366.9 1054.6,366.9 1059.2,366.9 1063.7,366.9 1068.3,366.9 1072.9,366.9 1077.5,366.9 1082,366.9 1086.6,366.9 
				1091.2,366.9 1095.7,366.9 1100.3,366.9 1104.9,366.9 1109.5,366.9 1114,366.9 1118.6,366.9 1123.2,366.9 1127.7,366.9 
				1132.3,366.9 1136.9,366.9 1141.5,366.9 1146,366.9 1150.6,366.9 1155.2,366.9 1159.7,366.9 1164.3,366.9 1168.9,366.9 
				1173.5,366.9 1178,366.9 1182.6,366.9 1187.2,366.9 1191.8,366.9 1196.3,366.9 1200.9,366.9 1205.5,366.9 1210.1,366.9 
				1214.6,366.9 1219.2,366.9 1223.8,366.9 1228.3,366.9 1232.9,366.9 1237.5,366.9 1242.1,366.9 1246.6,366.9 1251.2,366.9 
				1255.8,366.9 1260.3,366.9 1264.9,366.9 1269.5,366.9 1274.1,366.9 1278.6,366.9 1283.2,366.9 1287.8,366.9 1292.3,366.9 
				1296.9,366.9 1301.5,366.9 1306.1,366.9 1310.6,366.9 1315.2,366.9 1319.8,366.9 1324.4,366.9 1328.9,366.9 1333.5,366.9 
				1338.1,366.9 1342.6,366.9 1347.2,366.9 1351.8,366.9 1356.4,366.9 1360.9,366.9 1365.5,366.9 1370.1,366.9 1374.7,366.9 
				1379.2,366.9 1383.8,366.9 1388.4,366.9 1392.9,366.9 1397.5,366.9 1402.1,366.9 1406.7,366.9 1411.2,366.9 1415.8,366.9 
				1420.4,366.9 1424.9,366.9 1429.5,366.9 1434.1,366.9 1438.7,366.9 1443.2,366.9 1447.8,366.9 1452.4,366.9 1456.9,366.9 
				1461.5,366.9 1466.1,366.9 1470.7,366.9 1475.2,366.9 1479.8,366.9 1484.4,366.9 1489,366.9 1493.5,366.9 1498.1,366.9 
				1502.7,366.9 1507.3,366.9 1511.8,366.9 1516.4,366.9 1521,366.9 1525.5,366.9 1530.1,366.9 1534.7,366.9 1539.3,366.9 
				1543.8,366.9 1548.4,366.9 1553,366.9 1557.5,366.9 1562.1,366.9 1566.7,366.9 1571.3,366.9 1575.8,366.9 1580.4,366.9 
				1585,366.9 1589.5,366.9 1594.1,366.9 1598.7,366.9 1603.3,366.9 1598.7,412.1 1594.1,457.3 1589.5,502.5 1585,547.8 1580.4,593 
				1580.2,595.3 1580.2,595.3 1575.8,595.3 1571.3,595.3 1566.7,595.3 1562.1,595.3 1557.5,595.3 1553,595.3 1548.4,595.3 
				1543.8,595.3 1539.3,595.3 1534.7,595.3 1530.1,595.3 1525.5,595.3 1521,595.3 1516.4,595.3 1511.8,595.3 1507.3,595.3 
				1502.7,595.3 1498.1,595.3 1493.5,595.3 1489,595.3 1484.4,595.3 1479.8,595.3 1475.2,595.3 1470.7,595.3 1466.1,595.3 
				1461.5,595.3 1456.9,595.3 1452.4,595.3 1447.8,595.3 1443.2,595.3 1438.7,595.3 1434.1,595.3 1429.5,595.3 1424.9,595.3 
				1420.4,595.3 1415.8,595.3 1411.2,595.3 1406.7,595.3 1402.1,595.3 1397.5,595.3 1392.9,595.3 1388.4,595.3 1383.8,595.3 
				1379.2,595.3 1374.7,595.3 1370.1,595.3 1365.5,595.3 1360.9,595.3 1356.4,595.3 1351.8,595.3 1347.2,595.3 1342.6,595.3 
				1338.1,595.3 1333.5,595.3 1328.9,595.3 1324.4,595.3 1319.8,595.3 1315.2,595.3 1310.6,595.3 1306.1,595.3 1301.5,595.3 
				1296.9,595.3 1292.3,595.3 1287.8,595.3 1283.2,595.3 1278.6,595.3 1274.1,595.3 1269.5,595.3 1264.9,595.3 1260.3,595.3 
				1255.8,595.3 1251.2,595.3 1246.6,595.3 1242.1,595.3 1237.5,595.3 1232.9,595.3 1228.3,595.3 1223.8,595.3 1219.2,595.3 
				1214.6,595.3 1210.1,595.3 1205.5,595.3 1200.9,595.3 1196.3,595.3 1191.8,595.3 1187.2,595.3 1182.6,595.3 1178,595.3 
				1173.5,595.3 1168.9,595.3 1164.3,595.3 1159.7,595.3 1155.2,595.3 1150.6,595.3 1146,595.3 1141.5,595.3 1136.9,595.3 
				1132.3,595.3 1127.7,595.3 1123.2,595.3 1118.6,595.3 1114,595.3 1109.5,595.3 1104.9,595.3 1100.3,595.3 1095.7,595.3 
				1091.2,595.3 1086.6,595.3 1082,595.3 1077.5,595.3 1072.9,595.3 1068.3,595.3 1063.7,595.3 1059.2,595.3 1054.7,595.3 
				1054.6,595.3 1050,595.3 1045.4,595.3 1040.9,595.3 1036.3,595.3 1031.7,595.3 1027.2,595.3 1023.8,595.3 1023.1,595.3 
				1022.6,595.3 1018,595.3 1013.4,595.3 1008.9,595.3 1004.3,595.3 999.7,595.3 995.1,595.3 990.6,595.3 986,595.3 981.4,595.3 
				976.9,595.3 972.3,595.3 967.7,595.3 963.1,595.3 958.6,595.3 954,595.3 949.4,595.3 944.9,595.3 940.3,595.3 935.7,595.3 
				931.1,595.3 926.6,595.3 922,595.3 917.4,595.3 912.8,595.3 908.3,595.3 903.7,595.3 899.1,595.3 894.6,595.3 890,595.3 
				885.4,595.3 880.8,595.3 876.3,595.3 871.7,595.3 867.1,595.3 862.6,595.3 858,595.3 853.4,595.3 848.8,595.3 844.3,595.3 
				839.7,595.3 835.1,595.3 830.5,595.3 826,595.3 821.4,595.3 816.8,595.3 812.3,595.3 807.7,595.3 803.1,595.3 798.5,595.3 
				794,595.3 789.4,595.3 784.8,595.3 780.3,595.3 775.7,595.3 771.1,595.3 766.5,595.3 762,595.3 757.4,595.3 752.8,595.3 
				748.2,595.3 743.7,595.3 739.1,595.3 734.5,595.3 730,595.3 725.4,595.3 720.8,595.3 716.2,595.3 711.7,595.3 707.1,595.3 
				702.5,595.3 697.9,595.3 693.4,595.3 688.8,595.3 684.2,595.3 679.7,595.3 675.1,595.3 670.5,595.3 665.9,595.3 661.4,595.3 
				656.8,595.3 652.2,595.3 647.7,595.3 643.1,595.3 638.5,595.3 633.9,595.3 629.4,595.3 624.8,595.3 620.2,595.3 615.6,595.3 
				611.1,595.3 606.5,595.3 601.9,595.3 597.4,595.3 592.8,595.3 588.2,595.3 583.6,595.3 579.1,595.3 574.5,595.3 569.9,595.3 
				565.4,595.3 560.8,595.3 556.2,595.3 551.6,595.3 547.1,595.3 542.5,595.3 537.9,595.3 533.3,595.3 528.8,595.3 524.2,595.3 
				519.6,595.3 515.1,595.3 510.5,595.3 505.9,595.3 501.3,595.3 496.8,595.3 492.2,595.3 487.6,595.3 483.1,595.3 478.5,595.3 
				473.9,595.3 469.3,595.3 464.8,595.3 461,595.3 460.2,588.9 455.6,551.9 451,514.9 446.5,477.9 441.9,440.9 437.3,403.9 
				432.8,366.9 437.3,366.9 441.9,366.9 446.5,366.9 451,366.9 455.6,366.9 460.2,366.9 464.8,366.9 469.3,366.9 473.9,366.9 
				478.5,366.9 483.1,366.9 487.6,366.9 492.2,366.9 496.8,366.9 501.3,366.9 505.9,366.9 510.5,366.9 515.1,366.9 519.6,366.9 
				524.2,366.9 528.8,366.9 533.3,366.9 537.9,366.9 542.5,366.9 547.1,366.9 551.6,366.9 556.2,366.9 560.8,366.9 565.4,366.9 
				569.9,366.9 574.5,366.9 579.1,366.9 583.6,366.9 588.2,366.9 592.8,366.9 597.4,366.9 601.9,366.9 606.5,366.9 611.1,366.9 
				615.6,366.9 620.2,366.9 624.8,366.9 629.4,366.9 633.9,366.9 638.5,366.9 643.1,366.9 647.7,366.9 652.2,366.9 656.8,366.9 
				661.4,366.9 665.9,366.9 670.5,366.9 675.1,366.9 679.7,366.9 684.2,366.9 688.8,366.9 693.4,366.9 697.9,366.9 702.5,366.9 
				707.1,366.9 711.7,366.9 716.2,366.9 720.8,366.9 725.4,366.9 730,366.9 734.5,366.9 739.1,366.9 743.7,366.9 748.2,366.9 
				752.8,366.9 757.4,366.9 762,366.9 766.5,366.9 771.1,366.9 775.7,366.9 780.3,366.9 784.8,366.9 789.4,366.9 794,366.9 
				798.5,366.9 803.1,366.9 807.7,366.9 812.3,366.9 816.8,366.9 821.4,366.9 826,366.9 830.5,366.9 835.1,366.9 839.7,366.9 
				844.3,366.9 848.8,366.9 853.4,366.9 858,366.9 862.6,366.9 867.1,366.9 871.7,366.9 876.3,366.9 880.8,366.9 885.4,366.9 
				890,366.9 894.6,366.9 899.1,366.9 903.7,366.9 908.3,366.9 912.8,366.9 917.4,366.9 922,366.9 926.6,366.9 931.1,366.9 
				935.7,366.9 940.3,366.9 944.9,366.9 949.4,366.9 954,366.9 958.6,366.9 963.1,366.9 967.7,366.9 972.3,366.9 976.9,366.9 
				981.4,366.9 986,366.9 990.6,366.9 995.1,366.9 999.7,366.9 1004.3,366.9 1008.9,366.9 1013.4,366.9 1018,366.9 1022.6,366.9 			
				"/>
			<polygon id="_337846384" class="st2" points="482.4,834.1 1560.5,834.1 1540.9,1059.9 500.3,1057.4 			"/>
			<polygon id="_337846192" class="st2" points="516.1,1183.2 751.9,1183.3 767.3,1368 1023.1,1431.4 1285.8,1357.7 1303.6,1055.7 
				1541.5,1051.9 1498.9,1542.5 1024,1681.1 545.7,1539.9 			"/>
		</g>
		<g>
			<polygon id="_337846792" class="st3" points="1024,833.1 1580.2,595.3 1603.3,366.9 1024,608.1 			"/>
			<polygon id="_337846480" class="st3" points="1024,366.9 1027.2,366.9 1031.7,366.9 1036.3,366.9 1040.9,366.9 1045.4,366.9 
				1050,366.9 1054.6,366.9 1059.2,366.9 1063.7,366.9 1068.3,366.9 1072.9,366.9 1077.5,366.9 1082,366.9 1086.6,366.9 
				1091.2,366.9 1095.7,366.9 1100.3,366.9 1104.9,366.9 1109.5,366.9 1114,366.9 1118.6,366.9 1123.2,366.9 1127.7,366.9 
				1132.3,366.9 1136.9,366.9 1141.5,366.9 1146,366.9 1150.6,366.9 1155.2,366.9 1159.7,366.9 1164.3,366.9 1168.9,366.9 
				1173.5,366.9 1178,366.9 1182.6,366.9 1187.2,366.9 1191.8,366.9 1196.3,366.9 1200.9,366.9 1205.5,366.9 1210.1,366.9 
				1214.6,366.9 1219.2,366.9 1223.8,366.9 1228.3,366.9 1232.9,366.9 1237.5,366.9 1242.1,366.9 1246.6,366.9 1251.2,366.9 
				1255.8,366.9 1260.3,366.9 1264.9,366.9 1269.5,366.9 1274.1,366.9 1278.6,366.9 1283.2,366.9 1287.8,366.9 1292.3,366.9 
				1296.9,366.9 1301.5,366.9 1306.1,366.9 1310.6,366.9 1315.2,366.9 1319.8,366.9 1324.4,366.9 1328.9,366.9 1333.5,366.9 
				1338.1,366.9 1342.6,366.9 1347.2,366.9 1351.8,366.9 1356.4,366.9 1360.9,366.9 1365.5,366.9 1370.1,366.9 1374.7,366.9 
				1379.2,366.9 1383.8,366.9 1388.4,366.9 1392.9,366.9 1397.5,366.9 1402.1,366.9 1406.7,366.9 1411.2,366.9 1415.8,366.9 
				1420.4,366.9 1424.9,366.9 1429.5,366.9 1434.1,366.9 1438.7,366.9 1443.2,366.9 1447.8,366.9 1452.4,366.9 1456.9,366.9 
				1461.5,366.9 1466.1,366.9 1470.7,366.9 1475.2,366.9 1479.8,366.9 1484.4,366.9 1489,366.9 1493.5,366.9 1498.1,366.9 
				1502.7,366.9 1507.3,366.9 1511.8,366.9 1516.4,366.9 1521,366.9 1525.5,366.9 1530.1,366.9 1534.7,366.9 1539.3,366.9 
				1543.8,366.9 1548.4,366.9 1553,366.9 1557.5,366.9 1562.1,366.9 1566.7,366.9 1571.3,366.9 1575.8,366.9 1580.4,366.9 
				1585,366.9 1589.5,366.9 1594.1,366.9 1598.7,366.9 1603.3,366.9 1598.7,412.1 1594.1,457.3 1589.5,502.5 1585,547.8 1580.4,593 
				1580.2,595.3 1580.2,595.3 1575.8,595.3 1571.3,595.3 1566.7,595.3 1562.1,595.3 1557.5,595.3 1553,595.3 1548.4,595.3 
				1543.8,595.3 1539.3,595.3 1534.7,595.3 1530.1,595.3 1525.5,595.3 1521,595.3 1516.4,595.3 1511.8,595.3 1507.3,595.3 
				1502.7,595.3 1498.1,595.3 1493.5,595.3 1489,595.3 1484.4,595.3 1479.8,595.3 1475.2,595.3 1470.7,595.3 1466.1,595.3 
				1461.5,595.3 1456.9,595.3 1452.4,595.3 1447.8,595.3 1443.2,595.3 1438.7,595.3 1434.1,595.3 1429.5,595.3 1424.9,595.3 
				1420.4,595.3 1415.8,595.3 1411.2,595.3 1406.7,595.3 1402.1,595.3 1397.5,595.3 1392.9,595.3 1388.4,595.3 1383.8,595.3 
				1379.2,595.3 1374.7,595.3 1370.1,595.3 1365.5,595.3 1360.9,595.3 1356.4,595.3 1351.8,595.3 1347.2,595.3 1342.6,595.3 
				1338.1,595.3 1333.5,595.3 1328.9,595.3 1324.4,595.3 1319.8,595.3 1315.2,595.3 1310.6,595.3 1306.1,595.3 1301.5,595.3 
				1296.9,595.3 1292.3,595.3 1287.8,595.3 1283.2,595.3 1278.6,595.3 1274.1,595.3 1269.5,595.3 1264.9,595.3 1260.3,595.3 
				1255.8,595.3 1251.2,595.3 1246.6,595.3 1242.1,595.3 1237.5,595.3 1232.9,595.3 1228.3,595.3 1223.8,595.3 1219.2,595.3 
				1214.6,595.3 1210.1,595.3 1205.5,595.3 1200.9,595.3 1196.3,595.3 1191.8,595.3 1187.2,595.3 1182.6,595.3 1178,595.3 
				1173.5,595.3 1168.9,595.3 1164.3,595.3 1159.7,595.3 1155.2,595.3 1150.6,595.3 1146,595.3 1141.5,595.3 1136.9,595.3 
				1132.3,595.3 1127.7,595.3 1123.2,595.3 1118.6,595.3 1114,595.3 1109.5,595.3 1104.9,595.3 1100.3,595.3 1095.7,595.3 
				1091.2,595.3 1086.6,595.3 1082,595.3 1077.5,595.3 1072.9,595.3 1068.3,595.3 1063.7,595.3 1059.2,595.3 1054.7,595.3 
				1054.6,595.3 1050,595.3 1045.4,595.3 1040.9,595.3 1036.3,595.3 1031.7,595.3 1027.2,595.3 1024,595.3 			"/>
			<polygon id="_337845784" class="st3" points="1024,834.1 1560.5,834.1 1540.9,1059.9 1024,1058.7 			"/>
			<polygon id="_337845328" class="st3" points="1024,1431.2 1285.8,1357.7 1303.6,1055.7 1541.5,1051.9 1498.9,1542.5 1024,1681.1 
				1024,1681.1 			"/>
		</g>
	</g>
</g>
<rect class="st4" width="2048" height="2048"/>
</svg>
