<?xml version="1.0" encoding="utf-8"?>
<!-- Generator: Adobe Illustrator 24.1.1, SVG Export Plug-In . SVG Version: 6.00 Build 0)  -->
<svg version="1.1" id="Layer_1" focusable="false" xmlns="http://www.w3.org/2000/svg" xmlns:xlink="http://www.w3.org/1999/xlink"
	 x="0px" y="0px" viewBox="0 0 28 28" style="enable-background:new 0 0 28 28;" xml:space="preserve">
<style type="text/css">
	.gat1{fill:#663399;}
	.gat2{fill:#FFFFFF;}
</style>
<circle class="gat1" cx="14" cy="14" r="11.8"/>
<path class="gat2" d="M7.4,20.6c-1.8-1.8-2.7-4.1-2.7-6.4l9.2,9.1C11.5,23.2,9.2,22.4,7.4,20.6z M16,23.1L4.9,12
	C5.9,7.8,9.6,4.7,14,4.7c3.1,0,5.8,1.5,7.5,3.8l-1.3,1.1c-1.4-1.9-3.7-3.2-6.3-3.2c-3.3,0-6.1,2.1-7.2,5.1l9.7,9.7
	c2.5-0.8,4.3-3,4.9-5.5h-4.1V14h5.9C23.3,18.4,20.2,22.1,16,23.1z"/>
</svg>
