<?xml version="1.0" encoding="utf-8"?>
<!-- Generator: Adobe Illustrator 24.1.1, SVG Export Plug-In . SVG Version: 6.00 Build 0)  -->
<svg version="1.1" id="Layer_1" xmlns="http://www.w3.org/2000/svg" xmlns:xlink="http://www.w3.org/1999/xlink" x="0px" y="0px"
	 viewBox="0 0 66 53" style="enable-background:new 0 0 66 53;" xml:space="preserve">
<style type="text/css">
	.st0{fill:#EA4335;}
	.st1{fill:#4285F4;}
	.st2{fill:#34A853;}
	.st3{fill:#FBBC05;}
</style>
<symbol  id="A" viewBox="-32 -25.7 64 51.5">
	<g>
		<path class="st0" d="M8.7-11.5l2,0l5.6-5.6l0.3-2.4C12-23.5,6.1-25.7,0-25.7c-11.5,0-21.3,7.9-24.2,18.5c0.6-0.4,1.9-0.1,1.9-0.1
			l11.1-1.8c0,0,0.6-0.9,0.9-0.9C-7.6-13-3.9-14.6,0-14.6C3.3-14.6,6.3-13.5,8.7-11.5L8.7-11.5z"/>
		<path class="st1" d="M24.2-7.2c-1.3-4.8-4-9-7.6-12.2l-7.9,7.9c3.2,2.6,5.2,6.5,5.2,10.8v1.4c3.8,0,7,3.1,7,7c0,3.8-3.1,7-7,7H0
			L-1.4,16v8.3L0,25.7h13.9c10,0,18.1-8.1,18.1-18.1C32,1.5,28.9-4,24.2-7.2L24.2-7.2z"/>
		<path class="st2" d="M-13.9,25.7H0V14.6h-13.9c-1,0-2-0.2-2.9-0.6l-2,0.6l-5.6,5.6l-0.5,1.9C-21.7,24.4-17.9,25.7-13.9,25.7
			L-13.9,25.7z"/>
		<path class="st3" d="M-13.9-10.4c-10,0-18.1,8.1-18.1,18.1c0,5.9,2.8,11.1,7.2,14.4l8.1-8.1c-2.5-1.1-4.1-3.6-4.1-6.3
			c0-3.8,3.1-7,7-7c2.8,0,5.2,1.7,6.3,4.1l8.1-8.1C-2.8-7.6-8-10.4-13.9-10.4L-13.9-10.4z"/>
	</g>
</symbol>
<use xlink:href="#A"  width="64" height="51.5" x="-32" y="-25.7" transform="matrix(0.9025 0 0 0.9025 33 26.5)" style="overflow:visible;"/>
</svg>
