<?xml version="1.0" encoding="utf-8"?>
<!-- Generator: Adobe Illustrator 24.1.1, SVG Export Plug-In . SVG Version: 6.00 Build 0)  -->
<svg version="1.1" id="Layer_1" xmlns="http://www.w3.org/2000/svg" xmlns:xlink="http://www.w3.org/1999/xlink" x="0px" y="0px"
	 viewBox="0 0 1000 1000" style="enable-background:new 0 0 1000 1000;" xml:space="preserve">
<style type="text/css">
	.next{fill:#FFFFFF;}
</style>
<path class="next" d="M664.8,352.6l-0.3,204.7L628.4,502l-36.2-55.3V297.9c0-96.2,0.5-150.3,1.1-152.9c1.8-6.4,5.8-11.4,11.3-14.3
	c4.7-2.4,6.4-2.6,24.2-2.6c16.9,0,19.8,0.2,23.6,2.3c5.5,2.7,9.9,8,11.5,13.4C664.8,146.7,665,210,664.8,352.6z"/>
<path class="next" d="M767.3,850.1c-12.5,8.1-25.4,15.7-38.6,22.8c0-0.3-0.1-0.5-0.4-0.8c-0.9-0.7-43.6-58-94.8-127.2l-93.1-125.8
	L423.7,446.4c-64.2-95-117-172.6-117.5-172.6c-0.5-0.1-0.9,76.6-1.1,170.3c-0.3,164.1-0.5,170.7-2.5,174.5c-3,5.6-5.2,7.9-10,10.4
	c-3.6,1.8-6.8,2.2-24,2.2h-19.7l-5.2-3.3c-3.4-2.2-5.9-5-7.6-8.3l-2.4-5.1l0.2-228.3l0.3-228.4l3.5-4.4c1.8-2.4,5.7-5.5,8.4-6.9
	c4.7-2.3,6.5-2.5,26.2-2.5c23.2,0,27.1,0.9,33.1,7.5c1.7,1.8,64.9,97,140.5,211.6s179,271.2,229.8,348L767.3,850.1z"/>
</svg>
